<?xml version="1.0" encoding="UTF-8"?>
<svg id="Capa_2" data-name="Capa 2" xmlns="http://www.w3.org/2000/svg" viewBox="0 0 155.86 155.86">
  <defs>
    <style>
      .cls-1 {
        fill: #c72d29;
      }

      .cls-2 {
        fill: #fff;
      }

      .cls-3 {
        fill: #d1cfce;
      }
    </style>
  </defs>
  <g id="Capa_1-2" data-name="Capa 1">
    <g>
      <circle class="cls-2" cx="77.93" cy="77.93" r="77.93"/>
      <g>
        <polygon class="cls-3" points="40.87 86.49 26.92 111.3 76.66 111.3 40.87 86.49"/>
        <polygon class="cls-1" points="53.32 93.91 77.43 110.62 77.43 21.41 41.36 85.61 53.32 93.91"/>
        <polygon class="cls-2" points="28.92 112.3 52.36 123.54 76.04 112.3 28.92 112.3"/>
        <polygon class="cls-2" points="77.43 135.56 77.43 112.75 53.52 124.1 77.43 135.56"/>
        <polygon class="cls-3" points="79.2 111.3 128.94 111.3 115 86.49 79.2 111.3"/>
        <polygon class="cls-1" points="114.5 85.61 78.43 21.41 78.43 110.62 102.54 93.91 114.5 85.61"/>
        <polygon class="cls-2" points="103.5 123.54 126.94 112.3 79.82 112.3 103.5 123.54"/>
        <polygon class="cls-2" points="78.43 135.56 102.34 124.1 78.43 112.75 78.43 135.56"/>
        <path d="M130.09,111.31l-14.49-25.79L78.37,19.25s-.02-.02-.02-.03c-.02-.02-.03-.05-.05-.07-.02-.02-.04-.04-.06-.05-.02-.02-.04-.03-.07-.04-.02-.01-.05-.02-.07-.03-.01,0-.02-.01-.03-.02-.01,0-.03,0-.04,0-.03,0-.06,0-.08,0-.03,0-.05,0-.08,0-.01,0-.03,0-.04,0-.01,0-.02.01-.03.02-.03,0-.05.02-.08.03-.02.01-.05.03-.07.04-.02.02-.04.04-.06.05-.02.02-.04.04-.05.06,0,.01-.02.02-.02.03l-37.23,66.26-14.49,25.79c-.07.12-.08.26-.04.4.04.13.14.24.26.3l.51.25s0,0,0,0l25.64,12.29,25.57,12.26c.07.03.14.05.22.05s.15-.02.22-.05l25.57-12.26,25.64-12.29s0,0,0,0l.51-.25c.12-.06.22-.17.26-.3.04-.13.03-.28-.04-.4ZM40.87,86.49l35.79,24.82H26.92l13.94-24.82ZM28.92,112.3h47.12l-23.68,11.24-23.44-11.24ZM77.43,135.56l-23.91-11.46,23.91-11.35v22.82ZM77.43,110.62l-24.11-16.71-11.97-8.3L77.43,21.41v89.21ZM78.43,21.41l36.07,64.2-11.97,8.3-24.11,16.71V21.41ZM78.43,135.56v-22.82l23.91,11.35-23.91,11.46ZM103.5,123.54l-23.68-11.24h47.12l-23.44,11.24ZM79.2,111.3l35.79-24.82,13.94,24.82h-49.73Z"/>
      </g>
    </g>
  </g>
</svg>