<?xml version="1.0" encoding="UTF-8"?>
<svg id="Capa_2" data-name="Capa 2" xmlns="http://www.w3.org/2000/svg" viewBox="0 0 424.36 117.86">
  <defs>
    <style>
      .cls-1 {
        fill: #c72d29;
      }

      .cls-2 {
        fill: #fff;
      }

      .cls-3 {
        fill: #d1cfce;
      }
    </style>
  </defs>
  <g id="Capa_1-2" data-name="Capa 1">
    <g>
      <g>
        <g>
          <path d="M119.87,94.25h4.71c.93,0,1.68.26,2.26.79s.86,1.27.86,2.23c0,.82-.26,1.54-.77,2.15s-1.29.91-2.35.91h-3.29v4.45h-1.43v-10.53ZM125.41,95.7c-.31-.15-.74-.22-1.29-.22h-2.82v3.65h2.82c.64,0,1.15-.14,1.55-.41.4-.27.59-.75.59-1.44,0-.77-.28-1.3-.85-1.58Z"/>
          <path d="M129.7,94.25h4.79c.79,0,1.44.12,1.95.35.97.45,1.46,1.28,1.46,2.49,0,.63-.13,1.15-.39,1.55-.26.4-.62.72-1.09.97.41.17.72.39.93.66s.32.71.35,1.33l.05,1.41c.01.4.05.7.1.9.09.33.24.55.46.65v.24h-1.75c-.05-.09-.09-.21-.11-.35-.03-.14-.05-.42-.07-.83l-.09-1.76c-.03-.69-.28-1.15-.75-1.38-.26-.13-.68-.19-1.25-.19h-3.16v4.52h-1.43v-10.53ZM134.34,99.08c.65,0,1.17-.13,1.54-.4s.57-.75.57-1.45c0-.75-.27-1.26-.79-1.53-.28-.14-.66-.21-1.14-.21h-3.39v3.6h3.21Z"/>
          <path d="M148.81,95.76c.7.93,1.05,2.12,1.05,3.58,0,1.57-.4,2.88-1.2,3.92-.94,1.22-2.27,1.84-4.01,1.84-1.62,0-2.89-.54-3.82-1.61-.83-1.03-1.24-2.34-1.24-3.91,0-1.42.35-2.64,1.06-3.66.91-1.3,2.25-1.95,4.03-1.95s3.24.6,4.13,1.79ZM147.55,102.47c.56-.9.84-1.94.84-3.11,0-1.24-.32-2.24-.97-2.99-.65-.75-1.53-1.13-2.66-1.13s-1.98.38-2.67,1.12c-.69.75-1.03,1.85-1.03,3.31,0,1.17.29,2.15.89,2.95.59.8,1.55,1.2,2.87,1.2s2.17-.45,2.73-1.35Z"/>
          <path d="M150.74,94.25h1.66l3.03,5.06,3.03-5.06h1.68l-3.99,6.29v4.24h-1.43v-4.24l-3.98-6.29Z"/>
          <path d="M161.48,94.25h7.64v1.29h-6.25v3.2h5.78v1.22h-5.78v3.57h6.36v1.25h-7.75v-10.53Z"/>
          <path d="M178.59,95.02c.73.7,1.13,1.5,1.21,2.39h-1.39c-.15-.68-.46-1.22-.93-1.61-.46-.4-1.11-.59-1.95-.59-1.02,0-1.84.37-2.47,1.09-.63.73-.94,1.85-.94,3.35,0,1.23.28,2.24.85,3,.57.77,1.41,1.15,2.53,1.15,1.03,0,1.82-.4,2.36-1.21.29-.43.5-.98.64-1.68h1.39c-.12,1.11-.53,2.04-1.22,2.79-.83.9-1.94,1.35-3.34,1.35-1.21,0-2.23-.37-3.05-1.11-1.08-.98-1.62-2.49-1.62-4.54,0-1.55.41-2.83,1.22-3.82.88-1.08,2.09-1.62,3.64-1.62,1.32,0,2.34.35,3.07,1.05Z"/>
          <path d="M189.4,94.25v1.25h-3.55v9.28h-1.44v-9.28h-3.55v-1.25h8.54Z"/>
          <path d="M199.13,95.76c.7.93,1.05,2.12,1.05,3.58,0,1.57-.4,2.88-1.2,3.92-.94,1.22-2.27,1.84-4.01,1.84-1.62,0-2.89-.54-3.82-1.61-.83-1.03-1.24-2.34-1.24-3.91,0-1.42.35-2.64,1.06-3.66.91-1.3,2.25-1.95,4.03-1.95s3.24.6,4.13,1.79ZM197.87,102.47c.56-.9.84-1.94.84-3.11,0-1.24-.32-2.24-.97-2.99-.65-.75-1.53-1.13-2.66-1.13s-1.98.38-2.67,1.12c-.69.75-1.03,1.85-1.03,3.31,0,1.17.29,2.15.89,2.95.59.8,1.55,1.2,2.87,1.2s2.17-.45,2.73-1.35Z"/>
          <path d="M204.88,94.25h1.66l3.03,5.06,3.03-5.06h1.68l-3.99,6.29v4.24h-1.43v-4.24l-3.98-6.29Z"/>
          <path d="M226.76,95.02c.73.7,1.13,1.5,1.21,2.39h-1.39c-.15-.68-.46-1.22-.93-1.61-.46-.4-1.11-.59-1.95-.59-1.02,0-1.84.37-2.47,1.09-.63.73-.94,1.85-.94,3.35,0,1.23.28,2.24.85,3,.57.77,1.41,1.15,2.53,1.15,1.03,0,1.82-.4,2.36-1.21.29-.43.5-.98.64-1.68h1.39c-.12,1.11-.53,2.04-1.22,2.79-.83.9-1.94,1.35-3.34,1.35-1.21,0-2.23-.37-3.05-1.11-1.08-.98-1.62-2.49-1.62-4.54,0-1.55.41-2.83,1.22-3.82.88-1.08,2.09-1.62,3.63-1.62,1.32,0,2.34.35,3.07,1.05Z"/>
          <path d="M238.59,95.76c.7.93,1.05,2.12,1.05,3.58,0,1.57-.4,2.88-1.2,3.92-.94,1.22-2.27,1.84-4.01,1.84-1.62,0-2.89-.54-3.82-1.61-.83-1.03-1.24-2.34-1.24-3.91,0-1.42.35-2.64,1.06-3.66.91-1.3,2.25-1.95,4.03-1.95s3.24.6,4.13,1.79ZM237.33,102.47c.56-.9.84-1.94.84-3.11,0-1.24-.32-2.24-.97-2.99-.65-.75-1.53-1.13-2.66-1.13s-1.98.38-2.67,1.12c-.69.75-1.03,1.85-1.03,3.31,0,1.17.29,2.15.88,2.95.59.8,1.55,1.2,2.87,1.2s2.17-.45,2.73-1.35Z"/>
          <path d="M241.33,94.25h1.68l5.25,8.51v-8.51h1.36v10.53h-1.6l-5.33-8.5v8.5h-1.36v-10.53Z"/>
          <path d="M252.87,101.39c.03.6.17,1.08.41,1.46.46.7,1.26,1.05,2.41,1.05.52,0,.99-.08,1.41-.23.82-.3,1.23-.83,1.23-1.59,0-.57-.17-.98-.52-1.23-.35-.24-.9-.45-1.65-.62l-1.38-.32c-.9-.21-1.54-.44-1.92-.7-.65-.44-.97-1.1-.97-1.97,0-.95.32-1.72.96-2.33.64-.61,1.54-.91,2.71-.91,1.07,0,1.99.27,2.74.8.75.53,1.13,1.38,1.13,2.56h-1.34c-.07-.56-.22-1-.44-1.3-.42-.55-1.12-.82-2.12-.82-.81,0-1.39.18-1.74.53s-.53.76-.53,1.23c0,.52.21.89.62,1.13.27.15.89.34,1.85.57l1.43.34c.69.16,1.22.38,1.6.67.65.49.97,1.21.97,2.14,0,1.17-.41,2-1.24,2.5-.83.5-1.79.75-2.88.75-1.28,0-2.28-.33-3-1-.72-.66-1.08-1.57-1.06-2.7h1.34Z"/>
          <path d="M269.39,94.25v1.25h-3.55v9.28h-1.44v-9.28h-3.55v-1.25h8.54Z"/>
          <path d="M270.87,94.25h4.79c.79,0,1.44.12,1.95.35.97.45,1.46,1.28,1.46,2.49,0,.63-.13,1.15-.39,1.55-.26.4-.62.72-1.09.97.41.17.72.39.93.66.21.27.32.71.35,1.33l.05,1.41c.01.4.05.7.1.9.09.33.24.55.46.65v.24h-1.75c-.05-.09-.09-.21-.11-.35-.03-.14-.05-.42-.07-.83l-.09-1.76c-.03-.69-.28-1.15-.75-1.38-.26-.13-.68-.19-1.25-.19h-3.16v4.52h-1.43v-10.53ZM275.51,99.08c.65,0,1.17-.13,1.54-.4s.57-.75.57-1.45c0-.75-.27-1.26-.79-1.53-.28-.14-.66-.21-1.14-.21h-3.39v3.6h3.21Z"/>
          <path d="M282.85,94.25v6.51c0,.76.14,1.4.43,1.91.43.76,1.15,1.15,2.17,1.15,1.22,0,2.05-.41,2.49-1.24.24-.45.35-1.05.35-1.81v-6.51h1.44v5.91c0,1.3-.17,2.29-.53,2.99-.64,1.27-1.86,1.91-3.64,1.91s-3-.64-3.63-1.91c-.35-.7-.53-1.69-.53-2.99v-5.91h1.44Z"/>
          <path d="M299.35,95.02c.73.7,1.13,1.5,1.21,2.39h-1.39c-.15-.68-.46-1.22-.93-1.61-.46-.4-1.11-.59-1.95-.59-1.02,0-1.84.37-2.47,1.09-.63.73-.94,1.85-.94,3.35,0,1.23.28,2.24.85,3,.57.77,1.41,1.15,2.53,1.15,1.03,0,1.82-.4,2.36-1.21.29-.43.5-.98.64-1.68h1.39c-.12,1.11-.53,2.04-1.22,2.79-.83.9-1.94,1.35-3.34,1.35-1.21,0-2.23-.37-3.05-1.11-1.08-.98-1.62-2.49-1.62-4.54,0-1.55.41-2.83,1.22-3.82.88-1.08,2.09-1.62,3.63-1.62,1.32,0,2.34.35,3.07,1.05Z"/>
          <path d="M309.96,95.02c.73.7,1.13,1.5,1.21,2.39h-1.39c-.15-.68-.46-1.22-.93-1.61-.46-.4-1.11-.59-1.95-.59-1.02,0-1.84.37-2.47,1.09-.63.73-.94,1.85-.94,3.35,0,1.23.28,2.24.85,3,.57.77,1.41,1.15,2.53,1.15,1.03,0,1.82-.4,2.36-1.21.29-.43.5-.98.64-1.68h1.39c-.12,1.11-.53,2.04-1.22,2.79-.83.9-1.94,1.35-3.34,1.35-1.21,0-2.23-.37-3.05-1.11-1.08-.98-1.62-2.49-1.62-4.54,0-1.55.41-2.83,1.22-3.82.88-1.08,2.09-1.62,3.63-1.62,1.32,0,2.34.35,3.07,1.05Z"/>
          <path d="M313.44,94.25h1.44v10.53h-1.44v-10.53Z"/>
          <path d="M325.87,95.76c.7.93,1.05,2.12,1.05,3.58,0,1.57-.4,2.88-1.2,3.92-.94,1.22-2.27,1.84-4.01,1.84-1.62,0-2.89-.54-3.82-1.61-.83-1.03-1.24-2.34-1.24-3.91,0-1.42.35-2.64,1.06-3.66.91-1.3,2.25-1.95,4.03-1.95s3.24.6,4.13,1.79ZM324.61,102.47c.56-.9.84-1.94.84-3.11,0-1.24-.32-2.24-.97-2.99-.65-.75-1.53-1.13-2.66-1.13s-1.98.38-2.67,1.12c-.69.75-1.03,1.85-1.03,3.31,0,1.17.29,2.15.88,2.95.59.8,1.55,1.2,2.87,1.2s2.17-.45,2.73-1.35ZM323.32,91.06l-1.91,2.07h-.99l1.31-2.07h1.59Z"/>
          <path d="M328.61,94.25h1.68l5.25,8.51v-8.51h1.36v10.53h-1.6l-5.33-8.5v8.5h-1.36v-10.53Z"/>
          <path d="M344.23,101.39c.03.6.17,1.08.41,1.46.46.7,1.26,1.05,2.41,1.05.52,0,.99-.08,1.41-.23.82-.3,1.23-.83,1.23-1.59,0-.57-.17-.98-.52-1.23-.35-.24-.9-.45-1.65-.62l-1.38-.32c-.9-.21-1.54-.44-1.92-.7-.65-.44-.97-1.1-.97-1.97,0-.95.32-1.72.96-2.33.64-.61,1.54-.91,2.71-.91,1.07,0,1.99.27,2.74.8.75.53,1.13,1.38,1.13,2.56h-1.34c-.07-.56-.22-1-.44-1.3-.42-.55-1.12-.82-2.12-.82-.81,0-1.39.18-1.74.53s-.53.76-.53,1.23c0,.52.21.89.62,1.13.27.15.89.34,1.85.57l1.43.34c.69.16,1.22.38,1.6.67.65.49.97,1.21.97,2.14,0,1.17-.41,2-1.24,2.5-.83.5-1.79.75-2.88.75-1.28,0-2.28-.33-3-1-.72-.66-1.08-1.57-1.06-2.7h1.34Z"/>
          <path d="M353.22,103.22h1.5v1.56h-1.5v-1.56Z"/>
          <path d="M360.23,94.25h1.61l3.82,10.53h-1.56l-1.07-3.15h-4.17l-1.14,3.15h-1.46l3.96-10.53ZM362.57,100.47l-1.6-4.65-1.7,4.65h3.3Z"/>
          <path d="M367.1,103.22h1.5v1.56h-1.5v-1.56Z"/>
          <path d="M375.18,94.25h4.21c1.43,0,2.54.51,3.33,1.54.7.93,1.05,2.12,1.05,3.56,0,1.12-.21,2.13-.62,3.03-.73,1.6-1.99,2.39-3.77,2.39h-4.2v-10.53ZM379.11,103.57c.47,0,.86-.05,1.16-.15.54-.19.99-.54,1.33-1.08.28-.43.47-.97.6-1.63.07-.4.1-.76.1-1.1,0-1.3-.25-2.32-.76-3.04-.51-.72-1.32-1.08-2.45-1.08h-2.47v8.09h2.49Z"/>
          <path d="M385.86,94.25h7.64v1.29h-6.25v3.2h5.78v1.22h-5.78v3.57h6.36v1.25h-7.75v-10.53Z"/>
          <path d="M407.04,95.02c.73.7,1.13,1.5,1.21,2.39h-1.39c-.15-.68-.46-1.22-.93-1.61-.46-.4-1.11-.59-1.95-.59-1.02,0-1.84.37-2.47,1.09-.63.73-.94,1.85-.94,3.35,0,1.23.28,2.24.85,3,.57.77,1.41,1.15,2.53,1.15,1.03,0,1.82-.4,2.36-1.21.29-.43.5-.98.64-1.68h1.39c-.12,1.11-.53,2.04-1.22,2.79-.83.9-1.94,1.35-3.34,1.35-1.21,0-2.23-.37-3.05-1.11-1.08-.98-1.62-2.49-1.62-4.54,0-1.55.41-2.83,1.22-3.82.88-1.08,2.09-1.62,3.63-1.62,1.32,0,2.34.35,3.07,1.05Z"/>
          <path d="M410.33,103.22h1.5v1.56h-1.5v-1.56Z"/>
          <path d="M415.11,94.25l3.03,8.97,2.99-8.97h1.6l-3.84,10.53h-1.51l-3.84-10.53h1.58Z"/>
          <path d="M422.86,103.22h1.5v1.56h-1.5v-1.56Z"/>
        </g>
        <g>
          <path d="M149.48,60.65V14.41h13.81v46.02c0,5.62-.97,10.08-2.92,13.37-3.29,5.56-9.23,8.34-17.81,8.34s-14.34-2.25-17.27-6.75c-2.93-4.5-4.4-10.64-4.4-18.41v-1.52h13.05v1.52c.12,5.11.68,8.71,1.68,10.79,1,2.08,3.15,3.12,6.44,3.12s5.41-1.14,6.46-3.41c.63-1.35.94-3.62.94-6.82Z"/>
          <path d="M223,51.63h-32.12v17h36.6v11.89h-50.1V14.41h48.49v11.71h-34.99v14.04h32.12v11.48Z"/>
          <path d="M285.03,80.52h-51.45v-11.66l34.13-42.75h-33.28v-11.71h50.51v11.08l-34.58,43.37h34.67v11.66Z"/>
          <path d="M334.91,78.91c-3.65,2.24-8.13,3.36-13.46,3.36-8.76,0-15.94-3.03-21.53-9.11-5.83-6.1-8.75-14.44-8.75-25.03s2.95-19.29,8.84-25.75,13.68-9.69,23.37-9.69c8.4,0,15.15,2.13,20.25,6.39,5.1,4.26,8.02,9.58,8.77,15.95h-13.59c-1.05-4.51-3.6-7.67-7.67-9.46-2.27-.99-4.8-1.48-7.58-1.48-5.32,0-9.7,2.01-13.12,6.03-3.42,4.02-5.14,10.07-5.14,18.14s1.85,13.89,5.56,17.27c3.71,3.38,7.92,5.07,12.65,5.07s8.43-1.34,11.39-4.01c2.96-2.68,4.78-6.18,5.47-10.52h-15.29v-11.03h27.54v35.48h-9.15l-1.39-8.25c-2.66,3.14-5.05,5.35-7.18,6.64Z"/>
          <path d="M404.52,66.93h-24.36l-4.58,13.59h-14.44l23.59-66.12h15.61l23.41,66.12h-14.98l-4.26-13.59ZM400.66,55.54l-8.25-26.02-8.52,26.02h16.78Z"/>
        </g>
      </g>
      <g>
        <polygon class="cls-3" points="15.16 67.48 1.22 92.3 50.95 92.3 15.16 67.48"/>
        <polygon class="cls-1" points="27.62 74.9 51.73 91.62 51.73 2.41 15.65 66.61 27.62 74.9"/>
        <polygon class="cls-2" points="3.21 93.3 26.66 104.54 50.33 93.3 3.21 93.3"/>
        <polygon class="cls-2" points="51.73 116.56 51.73 93.75 27.82 105.1 51.73 116.56"/>
        <polygon class="cls-3" points="53.5 92.3 103.23 92.3 89.29 67.48 53.5 92.3"/>
        <polygon class="cls-1" points="88.8 66.61 52.73 2.41 52.73 91.62 76.83 74.9 88.8 66.61"/>
        <polygon class="cls-2" points="77.79 104.54 101.24 93.3 54.12 93.3 77.79 104.54"/>
        <polygon class="cls-2" points="52.73 116.56 76.63 105.1 52.73 93.75 52.73 116.56"/>
        <path d="M104.39,92.31l-14.49-25.79L52.66.25s-.02-.02-.02-.03c-.02-.02-.03-.05-.05-.07-.02-.02-.04-.04-.06-.05-.02-.02-.04-.03-.07-.04-.02-.01-.05-.02-.07-.03-.01,0-.02-.01-.03-.02-.01,0-.03,0-.04,0-.03,0-.06,0-.08,0-.03,0-.05,0-.08,0-.01,0-.03,0-.04,0-.01,0-.02.01-.03.02-.03,0-.05.02-.08.03-.02.01-.05.03-.07.04-.02.02-.04.04-.06.05-.02.02-.04.04-.05.06,0,.01-.02.02-.02.03L14.56,66.51.06,92.31c-.07.12-.08.26-.04.4.04.13.14.24.26.3l.51.25s0,0,0,0l25.64,12.29,25.57,12.26c.07.03.14.05.22.05s.15-.02.22-.05l25.57-12.26,25.64-12.29s0,0,0,0l.51-.25c.12-.06.22-.17.26-.3.04-.13.03-.28-.04-.4ZM15.16,67.48l35.79,24.82H1.22l13.94-24.82ZM3.21,93.3h47.12l-23.68,11.24-23.44-11.24ZM51.73,116.56l-23.91-11.46,23.91-11.35v22.82ZM51.73,91.62l-24.11-16.71-11.97-8.3L51.73,2.41v89.21ZM52.73,2.41l36.07,64.2-11.97,8.3-24.11,16.71V2.41ZM52.73,116.56v-22.82l23.91,11.35-23.91,11.46ZM77.79,104.54l-23.68-11.24h47.12l-23.44,11.24ZM53.5,92.3l35.79-24.82,13.94,24.82h-49.73Z"/>
      </g>
    </g>
  </g>
</svg>